<?xml version="1.0" encoding="UTF-8" standalone="no"?>
<!-- Created with Inkscape (http://www.inkscape.org/) -->

<svg
   xmlns:dc="http://purl.org/dc/elements/1.1/"
   xmlns:cc="http://creativecommons.org/ns#"
   xmlns:rdf="http://www.w3.org/1999/02/22-rdf-syntax-ns#"
   xmlns:svg="http://www.w3.org/2000/svg"
   xmlns="http://www.w3.org/2000/svg"
   xmlns:sodipodi="http://sodipodi.sourceforge.net/DTD/sodipodi-0.dtd"
   xmlns:inkscape="http://www.inkscape.org/namespaces/inkscape"
   version="1.1"
   id="svg904"
   xml:space="preserve"
   width="850"
   height="310"
   viewBox="0 0 850 310"
   sodipodi:docname="FlashReconstruction.svg"
   inkscape:version="0.92.3 (2405546, 2018-03-11)"><metadata
     id="metadata910"><rdf:RDF><cc:Work
         rdf:about=""><dc:format>image/svg+xml</dc:format><dc:type
           rdf:resource="http://purl.org/dc/dcmitype/StillImage" /><dc:title /></cc:Work></rdf:RDF></metadata><defs
     id="defs908"><clipPath
       clipPathUnits="userSpaceOnUse"
       id="clipPath922"><path
         d="M 0,2.324581e-5 H 719.9999 V 540.00002 H 0 Z"
         id="path920"
         inkscape:connector-curvature="0" /></clipPath></defs><sodipodi:namedview
     pagecolor="#ffffff"
     bordercolor="#666666"
     borderopacity="1"
     objecttolerance="10"
     gridtolerance="10"
     guidetolerance="10"
     inkscape:pageopacity="0"
     inkscape:pageshadow="2"
     inkscape:window-width="1600"
     inkscape:window-height="833"
     id="namedview906"
     showgrid="false"
     inkscape:zoom="0.8125"
     inkscape:cx="508.11642"
     inkscape:cy="230.04483"
     inkscape:window-x="1200"
     inkscape:window-y="1104"
     inkscape:window-maximized="1"
     inkscape:current-layer="g912" /><g
     id="g912"
     inkscape:groupmode="layer"
     inkscape:label="FlashFinding"
     transform="matrix(1.3333333,0,0,-1.3333333,0,310)"><g
   id="g914" /><path
   d="m 0,522.6152 h 719.9999 v -18 H 0 Z"
   style="fill:#ffffff;fill-opacity:1;fill-rule:evenodd;stroke:none"
   id="path926"
   inkscape:connector-curvature="0" /><text
   id="text1176"
   style="font-variant:normal;font-weight:bold;font-size:14px;font-family:Arial;-inkscape-font-specification:Arial-BoldMT;writing-mode:lr-tb;fill:#ffffff;fill-opacity:1;fill-rule:nonzero;stroke:none"
   transform="scale(1,-1)"
   x="607.20001"
   y="-519.99988"><tspan
     id="tspan1174"
     sodipodi:role="line"
     y="-519.99988"
     x="607.20001 614.98682 622.77362">15 </tspan></text>

<g
   id="g1624"
   transform="translate(-56.007683,-28.625403)"><path
   d="M 91.800308,36.15377 H 681.92301"
   style="fill:none;stroke:#363744;stroke-width:2.08070827;stroke-linecap:butt;stroke-linejoin:round;stroke-miterlimit:10;stroke-dasharray:none;stroke-opacity:1"
   id="path1046"
   inkscape:connector-curvature="0" /><path
   inkscape:connector-curvature="0"
   id="path1048"
   style="fill:#363744;fill-opacity:1;fill-rule:evenodd;stroke:none"
   d="m 683.9878,36.15377 -7.7826,-4.53987 v 0 c -0.4963,-0.28951 -1.1334,-0.12187 -1.4229,0.37443 v 0 c -0.2895,0.4963 -0.1218,1.13333 0.3744,1.42284 0,0 0,0 0,0 l 4.7017,2.7426 -4.7017,2.74261 v 0 c -0.4962,0.28951 -0.6639,0.92653 -0.3744,1.42284 0,0 0,0 0,0 v 0 c 0.2895,0.4963 0.9266,0.66394 1.4229,0.37443 z" /><path
   d="M 91.800308,36.15377 V 256.21404"
   style="fill:none;stroke:#363744;stroke-width:2.08070827;stroke-linecap:butt;stroke-linejoin:round;stroke-miterlimit:10;stroke-dasharray:none;stroke-opacity:1"
   id="path1052"
   inkscape:connector-curvature="0" /><path
   inkscape:connector-curvature="0"
   id="path1054"
   style="fill:#363744;fill-opacity:1;fill-rule:evenodd;stroke:none"
   d="m 91.80031,258.2788 -4.53988,-7.7827 v 0 c -0.28951,-0.4963 -0.12186,-1.1333 0.37443,-1.4228 v 0 c 0.4963,-0.2895 1.13334,-0.1219 1.42284,0.3744 0,0 0,0 0,0 l 2.74261,4.7016 2.74261,-4.7016 v 0 c 0.2895,-0.4963 0.92653,-0.6639 1.42283,-0.3744 0,0 0,0 0,0 v 0 c 0.49631,0.2895 0.66394,0.9265 0.37444,1.4228 z" /><path
   d="m 66.564731,35.42674 c 7.778938,98.86951 15.558099,197.73846 24.893034,197.73846 9.334945,0 31.116405,-197.73846 31.116405,-197.73846"
   style="fill:none;stroke:#008f00;stroke-width:2.08070827;stroke-linecap:butt;stroke-linejoin:round;stroke-miterlimit:10;stroke-dasharray:none;stroke-opacity:1"
   id="path1058"
   inkscape:connector-curvature="0" /><path
   d="m 378.01431,38.085367 c 4.57626,25.109238 9.15265,50.218337 14.64432,50.218337 5.49163,0 18.30544,-50.218337 18.30544,-50.218337"
   style="fill:none;stroke:#941100;stroke-width:2.08070827;stroke-linecap:butt;stroke-linejoin:round;stroke-miterlimit:10;stroke-dasharray:none;stroke-opacity:1"
   id="path1062"
   inkscape:connector-curvature="0" /><path
   d="m 90.71778,159.40799 c 18.0776,-22.78621 36.1552,-45.57243 129.06076,-63.760543 92.90565,-18.18809 428.37219,-45.368005 428.37219,-45.368005"
   style="fill:none;stroke:#4180ff;stroke-width:2.08070827;stroke-linecap:butt;stroke-linejoin:round;stroke-miterlimit:10;stroke-dasharray:8.3228328, 6.2421246;stroke-dashoffset:0;stroke-opacity:1"
   id="path1066"
   inkscape:connector-curvature="0" /><path
   d="m 392.65859,88.303704 74.31478,0.511887"
   style="fill:none;stroke:#a4b1a9;stroke-width:2.08070827;stroke-linecap:butt;stroke-linejoin:round;stroke-miterlimit:10;stroke-dasharray:none;stroke-opacity:1"
   id="path1070"
   inkscape:connector-curvature="0" /><g
   transform="translate(-9)"
   id="g1588"><path
     inkscape:connector-curvature="0"
     id="path1074"
     style="fill:none;stroke:#941100;stroke-width:2.08070827;stroke-linecap:butt;stroke-linejoin:round;stroke-miterlimit:10;stroke-dasharray:none;stroke-opacity:1"
     d="M 467.84701,72.533379 V 86.785023"
     sodipodi:nodetypes="cc" /><path
     d="m 467.68622,88.867748 -4.54967,-7.776869 v 0 c -0.2902,-0.49595 -0.12342,-1.133181 0.37256,-1.423323 v 0 c 0.49597,-0.290132 1.13322,-0.123307 1.42332,0.372628 0,0 0,0 0,0 l 2.74853,4.698118 2.73665,-4.70508 v 0 c 0.28888,-0.496673 0.92572,-0.665115 1.4224,-0.376234 0,0 0,0 0,0 v 0 c 0.49668,0.288881 0.66512,0.925699 0.37624,1.422361 z"
     style="fill:#941100;fill-opacity:1;fill-rule:evenodd;stroke:none"
     id="path1076"
     inkscape:connector-curvature="0" /></g><path
   d="m 199.8959,36.153793 c 4.57626,25.10923 9.15266,50.21833 14.6443,50.21833 5.49166,0 18.30545,-50.21833 18.30545,-50.21833"
   style="fill:none;stroke:#941100;stroke-width:2.08070827;stroke-linecap:butt;stroke-linejoin:round;stroke-miterlimit:10;stroke-dasharray:none;stroke-opacity:1"
   id="path1086"
   inkscape:connector-curvature="0" /><path
   d="m 393.11911,72.533379 74.86233,-7.6e-5"
   style="fill:none;stroke:#a4b1a9;stroke-width:2.08070827;stroke-linecap:butt;stroke-linejoin:round;stroke-miterlimit:10;stroke-dasharray:none;stroke-opacity:1"
   id="path1090"
   inkscape:connector-curvature="0" /><path
   d="m 560.87228,38.085363 c 7.77893,48.637053 15.5581,97.273837 24.89306,97.273837 9.3349,0 31.1164,-97.273837 31.1164,-97.273837"
   style="fill:none;stroke:#008f00;stroke-width:2.08070827;stroke-linecap:butt;stroke-linejoin:round;stroke-miterlimit:10;stroke-dasharray:none;stroke-opacity:1"
   id="path1094"
   inkscape:connector-curvature="0" /><path
   d="m 586.96008,135.3592 74.31481,0.51189"
   style="fill:none;stroke:#a4b1a9;stroke-width:2.08070827;stroke-linecap:butt;stroke-linejoin:round;stroke-miterlimit:10;stroke-dasharray:none;stroke-opacity:1"
   id="path1108"
   inkscape:connector-curvature="0" /><g
   id="g1592"><path
     inkscape:connector-curvature="0"
     id="path1098"
     style="fill:none;stroke:#008f00;stroke-width:2.08070827;stroke-linecap:butt;stroke-linejoin:round;stroke-miterlimit:10;stroke-dasharray:none;stroke-opacity:1"
     d="M 651.04352,53.999921 V 131.7458"
     sodipodi:nodetypes="cc" /><path
     d="m 651.0937,135.8749 -4.6346,-7.7266 v 0 c -0.2955,-0.4927 -0.1357,-1.1318 0.3571,-1.4273 v 0 c 0.4927,-0.2956 1.1317,-0.1357 1.4273,0.357 0,0 0,0 0,0 l 2.7998,4.6678 2.685,-4.7348 v 0 c 0.2834,-0.4998 0.9183,-0.6752 1.4181,-0.3918 0,0 0,0 0,0 v 0 c 0.4998,0.2835 0.6752,0.9184 0.3918,1.4182 z"
     style="fill:#008f00;fill-opacity:1;fill-rule:evenodd;stroke:none"
     id="path1100"
     inkscape:connector-curvature="0" /></g><g
   transform="translate(0,-67.5)"
   id="g1558"><text
   xml:space="preserve"
   style="font-style:normal;font-variant:normal;font-weight:normal;font-stretch:normal;font-size:20px;line-height:1.25;font-family:'TeX Gyre Termes';-inkscape-font-specification:'TeX Gyre Termes';letter-spacing:0px;word-spacing:0px;fill:#000000;fill-opacity:1;stroke:none;stroke-width:0.75"
   x="235.38461"
   y="-296.30768"
   id="text1510"
   transform="scale(1,-1)"><tspan
     sodipodi:role="line"
     id="tspan1508"
     x="235.38461"
     y="-296.30768"
     style="font-size:22px;fill:#008000;fill-opacity:1;stroke-width:0.75">Accepted as new flash</tspan></text>

<text
   xml:space="preserve"
   style="font-style:normal;font-variant:normal;font-weight:normal;font-stretch:normal;font-size:20px;line-height:1.25;font-family:'TeX Gyre Termes';-inkscape-font-specification:'TeX Gyre Termes';letter-spacing:0px;word-spacing:0px;fill:#000000;fill-opacity:1;stroke:none;stroke-width:0.75"
   x="235.34061"
   y="-264"
   id="text1533"
   transform="scale(1,-1)"><tspan
     sodipodi:role="line"
     id="tspan1531"
     x="235.34061"
     y="-264"
     style="font-size:22px;fill:#800000;fill-opacity:1;stroke-width:0.75">Rejected, classified as late-light</tspan></text>

</g><text
   transform="scale(1,-1)"
   id="text1562"
   y="-120"
   x="171.69231"
   style="font-style:normal;font-variant:normal;font-weight:normal;font-stretch:normal;font-size:20px;line-height:1.25;font-family:'TeX Gyre Termes';-inkscape-font-specification:'TeX Gyre Termes';letter-spacing:0px;word-spacing:0px;fill:#000000;fill-opacity:1;stroke:none;stroke-width:0.75"
   xml:space="preserve"><tspan
     style="font-size:22px;fill:#3366ff;fill-opacity:1"
     y="-120"
     x="171.69231"
     id="tspan1564"
     sodipodi:role="line">exp(-t/1.6 μs)</tspan></text>

<text
   transform="scale(1,-1)"
   id="text1568"
   y="-93.92308"
   x="439.5"
   style="font-style:normal;font-variant:normal;font-weight:normal;font-stretch:normal;font-size:20px;line-height:1.25;font-family:'TeX Gyre Termes';-inkscape-font-specification:'TeX Gyre Termes';letter-spacing:0px;word-spacing:0px;fill:#000000;fill-opacity:1;stroke:none;stroke-width:0.75"
   xml:space="preserve"><tspan
     style="font-size:22px;fill:#800000;fill-opacity:1"
     y="-93.92308"
     x="439.5"
     id="tspan1570"
     sodipodi:role="line">&lt; 3σ</tspan></text>

<text
   xml:space="preserve"
   style="font-style:normal;font-variant:normal;font-weight:normal;font-stretch:normal;font-size:20px;line-height:1.25;font-family:'TeX Gyre Termes';-inkscape-font-specification:'TeX Gyre Termes';letter-spacing:0px;word-spacing:0px;fill:#008000;fill-opacity:1;stroke:none;stroke-width:0.75"
   x="631.96155"
   y="-140.76924"
   id="text1584"
   transform="scale(1,-1)"><tspan
     sodipodi:role="line"
     id="tspan1582"
     x="631.96155"
     y="-140.76924"
     style="font-size:22px;fill:#008000;fill-opacity:1">&gt; 3σ</tspan></text>

<path
   d="m 587.99991,53.999997 74.86236,-8e-5"
   style="fill:none;stroke:#a4b1a9;stroke-width:2.08070827;stroke-linecap:butt;stroke-linejoin:round;stroke-miterlimit:10;stroke-dasharray:none;stroke-opacity:1"
   id="path1104"
   inkscape:connector-curvature="0" /></g></g></svg>